<?xml version="1.0" standalone="no"?>
<!DOCTYPE svg PUBLIC "-//W3C//DTD SVG 20010904//EN"
 "http://www.w3.org/TR/2001/REC-SVG-20010904/DTD/svg10.dtd">
<svg version="1.0" xmlns="http://www.w3.org/2000/svg"
 width="547.000000pt" height="547.000000pt" viewBox="0 0 547.000000 547.000000"
 preserveAspectRatio="xMidYMid meet">
<metadata>
Created by potrace 1.11, written by Peter Selinger 2001-2013
</metadata>
<g transform="translate(0.000000,547.000000) scale(0.100000,-0.100000)"
fill="#000000" stroke="none">
<path d="M1022 5363 c-22 -4 -23 -8 -17 -56 37 -290 147 -615 272 -807 111
-169 182 -234 386 -356 62 -37 135 -87 164 -111 160 -135 311 -436 387 -773
24 -110 66 -399 66 -460 0 -28 0 -28 38 -18 186 51 326 218 379 451 20 90 23
331 4 437 -76 443 -322 902 -668 1247 -229 227 -500 389 -735 437 -71 15 -221
19 -276 9z"/>
<path d="M4160 5355 c-607 -135 -1230 -858 -1391 -1615 -30 -142 -33 -406 -6
-523 37 -155 133 -303 242 -372 45 -29 164 -80 170 -73 1 2 8 57 14 123 63
608 262 1049 543 1207 258 144 405 294 528 538 60 119 106 241 140 373 30 119
65 336 54 346 -13 13 -231 10 -294 -4z"/>
<path d="M893 5319 c-126 -61 -230 -184 -277 -327 -39 -117 -49 -209 -43 -372
10 -246 71 -469 202 -735 264 -539 707 -963 1140 -1090 94 -28 253 -43 317
-31 l35 6 -9 68 c-24 185 -90 456 -147 604 -64 165 -153 310 -246 401 -32 31
-114 89 -197 138 -229 136 -362 283 -483 534 -101 209 -164 444 -187 703 -13
152 -9 148 -105 101z"/>
<path d="M4466 5296 c-3 -31 -9 -82 -12 -113 -20 -202 -111 -528 -194 -693
-126 -252 -259 -388 -532 -540 -210 -117 -394 -433 -483 -826 -29 -130 -59
-343 -50 -352 4 -4 64 -7 133 -6 106 1 141 5 213 27 600 182 1191 909 1325
1632 26 137 26 370 1 480 -29 127 -88 238 -166 315 -63 61 -143 111 -203 125
-26 7 -26 5 -32 -49z"/>
<path d="M1940 2685 c-119 -31 -320 -130 -450 -222 -120 -86 -363 -327 -459
-455 -296 -398 -461 -831 -461 -1208 0 -63 5 -144 11 -180 25 -156 97 -300
192 -386 47 -43 174 -114 203 -114 7 0 14 34 19 93 20 258 103 572 208 782 47
94 128 214 193 284 75 81 155 142 279 211 266 148 440 430 539 870 27 121 57
330 49 343 -2 4 -55 7 -116 7 -85 -1 -135 -7 -207 -25z"/>
<path d="M3197 2703 c-8 -13 18 -181 53 -340 81 -369 224 -651 396 -779 38
-28 118 -80 178 -115 238 -139 414 -375 530 -706 58 -168 86 -317 112 -591 3
-28 10 -52 16 -52 6 0 44 16 86 36 544 262 372 1336 -332 2072 -200 208 -479
390 -696 452 -82 24 -332 41 -343 23z"/>
<path d="M2275 2643 c-36 -348 -109 -650 -205 -859 -93 -201 -223 -350 -380
-434 -271 -145 -446 -359 -574 -702 -62 -167 -134 -513 -111 -536 3 -4 66 -7
138 -6 112 1 146 5 222 28 119 35 308 130 424 213 116 83 315 274 415 397 354
438 558 1005 506 1406 -24 187 -76 306 -180 411 -63 64 -150 116 -222 133 -26
6 -27 5 -33 -51z"/>
<path d="M3097 2676 c-414 -170 -475 -793 -145 -1463 285 -580 808 -1038 1258
-1104 83 -12 226 -7 241 8 10 10 -13 158 -45 293 -74 312 -205 577 -364 738
-64 64 -125 107 -307 217 -92 56 -183 143 -243 232 -106 156 -206 410 -256
648 -24 116 -56 356 -56 423 0 38 -7 39 -83 8z"/>
</g>
</svg>
