<?xml version="1.0" encoding="utf-8"?>
<!-- Generator: Adobe Illustrator 20.0.0, SVG Export Plug-In . SVG Version: 6.00 Build 0)  -->
<svg version="1.1" id="Layer_1" xmlns="http://www.w3.org/2000/svg" xmlns:xlink="http://www.w3.org/1999/xlink" x="0px" y="0px"
	 viewBox="0 0 33.5 37" style="enable-background:new 0 0 33.5 37;" xml:space="preserve">
<style type="text/css">
	.st0{fill:#F7931E;}
</style>
<g>
	<g>
		<path class="st0" d="M29.6,15.5l1.8,3.2C25.8,25.5,21,30.5,17,33.5c-4.1-3.1-8.9-8-14.5-14.9l1.8-3.2c6.5,4.6,10.7,7.4,12.6,8.5
			C18.9,22.9,23.1,20.1,29.6,15.5z"/>
	</g>
	<g>
		<path class="st0" d="M29.7,1l1.8,3.2C25.9,11,21.1,16,17,19.1C12.9,16,8.1,11,2.6,4.2L4.4,1C10.8,5.6,15.1,8.5,17,9.5
			C19,8.5,23.2,5.6,29.7,1z"/>
	</g>
</g>
<g>
</g>
<g>
</g>
<g>
</g>
<g>
</g>
<g>
</g>
<g>
</g>
<g>
</g>
<g>
</g>
<g>
</g>
<g>
</g>
<g>
</g>
<g>
</g>
<g>
</g>
<g>
</g>
<g>
</g>
</svg>
