<?xml version="1.0" encoding="utf-8"?>
<!-- Generator: Adobe Illustrator 20.0.0, SVG Export Plug-In . SVG Version: 6.00 Build 0)  -->
<svg version="1.1" id="Layer_1" xmlns="http://www.w3.org/2000/svg" xmlns:xlink="http://www.w3.org/1999/xlink" x="0px" y="0px"
	 viewBox="0 0 400 400" style="enable-background:new 0 0 400 400;" xml:space="preserve">
<style type="text/css">
	.st0{fill:#543D2B;}
</style>
<path id="White_2_" class="st0" d="M374.6,3H24.7C12.8,3,3,12.8,3,24.7v349.8c0,12,9.7,21.7,21.7,21.7H213V244h-51.2v-59.3H213
	v-43.8c0-50.8,31-78.4,76.3-78.4c21.7,0,40.4,1.6,45.8,2.3v53.1h-31.4c-24.6,0-29.4,11.7-29.4,28.9v37.9h58.8l-7.7,59.3h-51.1v152.3
	h100.2c12,0,21.7-9.7,21.7-21.7V24.7C396.3,12.8,386.6,3,374.6,3z"/>
</svg>
