<?xml version="1.0" encoding="utf-8"?>
<!-- Generator: Adobe Illustrator 20.0.0, SVG Export Plug-In . SVG Version: 6.00 Build 0)  -->
<svg version="1.1" id="Layer_1" xmlns="http://www.w3.org/2000/svg" xmlns:xlink="http://www.w3.org/1999/xlink" x="0px" y="0px"
	 viewBox="0 0 400 400" style="enable-background:new 0 0 400 400;" xml:space="preserve">
<style type="text/css">
	.st0{fill:#543D2B;}
</style>
<g>
	<path class="st0" d="M200.3,39.2c52.4,0,58.6,0.2,79.3,1.1c19.1,0.9,29.5,4.1,36.4,6.8c9.2,3.6,15.7,7.8,22.6,14.7
		s11.1,13.4,14.7,22.6c2.7,6.9,5.9,17.3,6.8,36.4c0.9,20.7,1.1,26.9,1.1,79.3s-0.2,58.6-1.1,79.3c-0.9,19.1-4.1,29.5-6.8,36.4
		c-3.6,9.2-7.8,15.7-14.7,22.6c-6.9,6.9-13.4,11.1-22.6,14.7c-6.9,2.7-17.3,5.9-36.4,6.8c-20.7,0.9-26.9,1.1-79.3,1.1
		s-58.6-0.2-79.3-1.1c-19.1-0.9-29.5-4.1-36.4-6.8c-9.2-3.6-15.7-7.8-22.6-14.7c-6.9-6.9-11.1-13.4-14.7-22.6
		c-2.7-6.9-5.9-17.3-6.8-36.4c-0.9-20.7-1.1-26.9-1.1-79.3s0.2-58.6,1.1-79.3c0.9-19.1,4.1-29.5,6.8-36.4
		c3.6-9.2,7.8-15.7,14.7-22.6s13.4-11.1,22.6-14.7c6.9-2.7,17.3-5.9,36.4-6.8C141.8,39.4,148,39.2,200.3,39.2 M200.3,3.8
		c-53.3,0-60,0.2-80.9,1.2s-35.1,4.3-47.6,9.1c-12.9,5-23.8,11.7-34.7,22.6S19.5,58.6,14.5,71.5C9.6,84,6.3,98.2,5.3,119.1
		S4.1,146.7,4.1,200s0.2,60,1.2,80.9s4.3,35.1,9.1,47.6c5,12.9,11.7,23.8,22.6,34.7c10.9,10.9,21.8,17.6,34.7,22.6
		c12.5,4.8,26.7,8.2,47.6,9.1c20.9,1,27.6,1.2,80.9,1.2s60-0.2,80.9-1.2s35.1-4.3,47.6-9.1c12.9-5,23.8-11.7,34.7-22.6
		c10.9-10.9,17.6-21.8,22.6-34.7c4.8-12.5,8.2-26.7,9.1-47.6c1-20.9,1.2-27.6,1.2-80.9s-0.2-60-1.2-80.9S390.8,84,386,71.5
		c-5-12.9-11.7-23.8-22.6-34.7s-21.8-17.6-34.7-22.6C316.2,9.4,302,6,281.1,5.1C260.3,4,253.6,3.8,200.3,3.8L200.3,3.8z"/>
	<path class="st0" d="M200.3,99.2c-55.6,0-100.7,45.1-100.7,100.7s45.1,100.7,100.7,100.7s100.8-45,100.8-100.6S256,99.2,200.3,99.2
		z M200.3,265.4c-36.1,0-65.4-29.3-65.4-65.4s29.3-65.4,65.4-65.4s65.4,29.3,65.4,65.4S236.5,265.4,200.3,265.4z"/>
	<circle class="st0" cx="305.1" cy="95.3" r="23.5"/>
</g>
</svg>
