<?xml version="1.0" encoding="utf-8"?>
<!-- Generator: Adobe Illustrator 20.0.0, SVG Export Plug-In . SVG Version: 6.00 Build 0)  -->
<svg version="1.1" id="Layer_1" xmlns="http://www.w3.org/2000/svg" xmlns:xlink="http://www.w3.org/1999/xlink" x="0px" y="0px"
	 viewBox="0 0 115.1 137.7" style="enable-background:new 0 0 115.1 137.7;" xml:space="preserve">
<style type="text/css">
	.st0{fill:#FF7F00;}
	.st1{fill:#FFFFFF;}
</style>
<ellipse transform="matrix(0.5544 -0.8322 0.8322 0.5544 8.2924 87.187)" class="st0" cx="85.6" cy="35.8" rx="36.4" ry="21"/>
<path class="st1" d="M101.8,0.3c-0.2,5-1.2,10-2.8,14.7c-1.3,4.1-3.3,8-5.8,11.5c-2.8,3.6-6.1,5.5-9.9,7.8
	c-10.2,6.3-13,22.2-13.5,33.3c-0.1,1.5,0.1,3.6,0,4.8c0.6-12.2,3.8-27.7,15.2-34s16.3-20.7,16.8-33.3C101.8,3.7,101.7,1.5,101.8,0.3
	L101.8,0.3z"/>
<path class="st0" d="M105.7,132.2c-9.6,6.4-26.5-1.9-37.6-18.6s-12.3-35.5-2.7-41.9s26.5,1.9,37.6,18.6S115.4,125.8,105.7,132.2"/>
<path class="st1" d="M101.8,132.7c-0.4-12.5-5.2-27-16.8-33.3s-14.7-21.8-15.2-34c0,1.2-0.1,3.3,0,4.8c0.5,11,3.2,27,13.5,33.3
	c7.8,4.7,12.6,10,15.6,18.9"/>
<ellipse transform="matrix(0.8322 -0.5544 0.5544 0.8322 -14.5892 23.5288)" class="st0" cx="31.6" cy="35.9" rx="21" ry="36.4"/>
<path class="st1" d="M15.4,5.2c0.4,12.5,5.2,27,16.8,33.3s14.7,21.8,15.2,34c0-1.2,0.1-3.3,0-4.8c-0.5-11-3.2-27.1-13.5-33.3
	c-7.8-4.7-12.6-10-15.6-18.8c-1.7-4.9-2.7-10-2.9-15.2C15.4,1.5,15.3,3.6,15.4,5.2L15.4,5.2z"/>
<path class="st0" d="M10,132.3c-9.6-6.4-8.5-25.1,2.6-41.7s27.8-25,37.4-18.6s8.5,25.1-2.6,41.7S19.6,138.7,10,132.3"/>
<path class="st1" d="M18.1,122.8c1.3-4.1,3.3-8,5.8-11.5c2.8-3.6,6.1-5.5,9.9-7.8c10.2-6.3,13-22.2,13.5-33.3c0.1-1.5-0.1-3.6,0-4.8
	c-0.6,12.2-3.8,27.7-15.2,34s-16.3,20.7-16.8,33.3"/>
</svg>
