<?xml version="1.0" encoding="utf-8"?>
<!-- Generator: Adobe Illustrator 20.0.0, SVG Export Plug-In . SVG Version: 6.00 Build 0)  -->
<svg version="1.1" id="Layer_1" xmlns="http://www.w3.org/2000/svg" xmlns:xlink="http://www.w3.org/1999/xlink" x="0px" y="0px"
	 viewBox="0 0 400 400" style="enable-background:new 0 0 400 400;" xml:space="preserve">
<style type="text/css">
	.st0{fill:#543D2B;}
</style>
<path class="st0" d="M396.9,78.4c-14.5,6.4-30,10.7-46.3,12.7c16.6-10,29.4-25.8,35.5-44.6c-15.6,9.2-32.8,15.9-51.2,19.6
	c-14.7-15.7-35.7-25.5-58.8-25.5c-44.5,0-80.6,36.1-80.6,80.6c0,6.3,0.7,12.5,2.1,18.4c-67-3.4-126.4-35.5-166.2-84.2
	c-6.9,11.9-10.9,25.8-10.9,40.5c0,28,14.2,52.6,35.9,67.1c-13.2-0.4-25.6-4-36.5-10.1c0,0.3,0,0.7,0,1c0,39.1,27.8,71.7,64.7,79.1
	c-6.8,1.8-13.9,2.8-21.2,2.8c-5.2,0-10.2-0.5-15.2-1.4c10.3,32,40,55.3,75.3,56C95.7,312,60.9,324.9,23.1,324.9
	c-6.5,0-12.9-0.4-19.2-1.1c35.7,22.8,78,36.2,123.6,36.2c148.3,0,229.4-122.9,229.4-229.4c0-3.5-0.1-7-0.2-10.4
	C372.4,108.8,386.1,94.6,396.9,78.4z"/>
</svg>
